HIERARCHY
ROOT Hips
{
	OFFSET 0.000000 83.214638 0.000000
	CHANNELS 6 Xposition Yposition Zposition Xrotation Yrotation Zrotation
	JOINT Pelvis
	{
		OFFSET 0.000000 0.000000 0.000000
		CHANNELS 3 Xrotation Yrotation Zrotation
		JOINT LeftUpLeg
		{
			OFFSET 8.479700 -4.795502 -0.379100
			CHANNELS 3 Xrotation Yrotation Zrotation
			JOINT LeftLeg
			{
				OFFSET 0.024144 -32.555107 0.112900
				CHANNELS 3 Xrotation Yrotation Zrotation
				JOINT LeftFoot
				{
					OFFSET -0.024144 -32.638630 -3.012600
					CHANNELS 3 Xrotation Yrotation Zrotation
					JOINT LeftToeBase
					{
						OFFSET 0.970200 -13.225400 11.864200
						CHANNELS 3 Xrotation Yrotation Zrotation
						End Site
						{
							OFFSET 0.000000 12.319262 0.000000
						}
					}
					JOINT LFootTongue
					{
						OFFSET 1.142400 -1.059800 6.665200
						CHANNELS 3 Xrotation Yrotation Zrotation
						End Site
						{
							OFFSET 0.000000 12.319262 0.000000
						}
					}
				}
				JOINT LeftPantLeg
				{
					OFFSET 0.918482 -16.533964 -2.284700
					CHANNELS 3 Xrotation Yrotation Zrotation
					End Site
					{
						OFFSET 0.350399 24.744368 0.000000
					}
				}
			}
		}
		JOINT RightUpLeg
		{
			OFFSET -8.479700 -4.795502 -0.379100
			CHANNELS 3 Xrotation Yrotation Zrotation
			JOINT RightLeg
			{
				OFFSET -0.023144 -32.555092 0.112900
				CHANNELS 3 Xrotation Yrotation Zrotation
				JOINT RightFoot
				{
					OFFSET 0.023144 -32.638641 -3.012700
					CHANNELS 3 Xrotation Yrotation Zrotation
					JOINT RightToeBase
					{
						OFFSET -0.970200 -13.225400 11.864200
						CHANNELS 3 Xrotation Yrotation Zrotation
						End Site
						{
							OFFSET 0.000000 12.319244 0.000000
						}
					}
					JOINT RFootTongue
					{
						OFFSET -1.142200 -1.059800 6.665200
						CHANNELS 3 Xrotation Yrotation Zrotation
						End Site
						{
							OFFSET 0.000000 12.319243 0.000000
						}
					}
				}
				JOINT RightPantLeg
				{
					OFFSET -0.919482 -16.533978 -2.284800
					CHANNELS 3 Xrotation Yrotation Zrotation
					End Site
					{
						OFFSET -0.350400 24.744419 0.000000
					}
				}
			}
		}
	}
	JOINT Spine
	{
		OFFSET 0.000000 7.722000 1.166200
		CHANNELS 3 Xrotation Yrotation Zrotation
		JOINT Spine1
		{
			OFFSET 0.000000 12.024101 0.248800
			CHANNELS 3 Xrotation Yrotation Zrotation
			JOINT Spine2
			{
				OFFSET 0.000000 11.502998 -0.491200
				CHANNELS 3 Xrotation Yrotation Zrotation
				JOINT Neck
				{
					OFFSET 0.000000 18.430702 -3.123100
					CHANNELS 3 Xrotation Yrotation Zrotation
					JOINT Head
					{
						OFFSET 0.000000 9.051102 1.034000
						CHANNELS 3 Xrotation Yrotation Zrotation
						JOINT HairB
						{
							OFFSET 0.208400 24.786102 24.822300
							CHANNELS 3 Xrotation Yrotation Zrotation
							End Site
							{
								OFFSET 0.000000 32.263779 0.000000
							}
						}
						JOINT HairA
						{
							OFFSET -7.081100 24.428299 23.196600
							CHANNELS 3 Xrotation Yrotation Zrotation
							End Site
							{
								OFFSET 0.000000 32.263779 0.000000
							}
						}
						JOINT Hat
						{
							OFFSET 16.728800 15.048294 -15.439601
							CHANNELS 3 Xrotation Yrotation Zrotation
							End Site
							{
								OFFSET 0.000000 32.263779 0.000000
							}
						}
					}
				}
				JOINT LeftShoulder
				{
					OFFSET 6.197800 13.665199 -4.064700
					CHANNELS 3 Xrotation Yrotation Zrotation
					JOINT LeftArm
					{
						OFFSET 7.778100 -0.187103 -1.709300
						CHANNELS 3 Xrotation Yrotation Zrotation
						JOINT LeftForeArm
						{
							OFFSET 22.049376 0.000000 0.000000
							CHANNELS 3 Xrotation Yrotation Zrotation
							JOINT LeftHand
							{
								OFFSET 23.009392 0.000000 0.000000
								CHANNELS 3 Xrotation Yrotation Zrotation
								JOINT LeftHandThumb1
								{
									OFFSET 3.507191 -2.063065 3.133727
									CHANNELS 3 Xrotation Yrotation Zrotation
									JOINT LeftHandThumb2
									{
										OFFSET 3.101337 -1.790558 1.790558
										CHANNELS 3 Xrotation Yrotation Zrotation
										JOINT LeftHandThumb3
										{
											OFFSET 3.058640 -1.765907 1.765906
											CHANNELS 3 Xrotation Yrotation Zrotation
											End Site
											{
												OFFSET -0.415260 3.926476 -0.049563
											}
										}
									}
								}
								JOINT LeftHandIndex1
								{
									OFFSET 11.334419 -0.901459 3.706815
									CHANNELS 3 Xrotation Yrotation Zrotation
									JOINT LeftHandIndex2
									{
										OFFSET 3.283112 0.000000 0.000000
										CHANNELS 3 Xrotation Yrotation Zrotation
										JOINT LeftHandIndex3
										{
											OFFSET 3.323853 0.000000 0.000000
											CHANNELS 3 Xrotation Yrotation Zrotation
											End Site
											{
												OFFSET -1.135597 3.097809 0.402452
											}
										}
									}
								}
								JOINT LeftHandMiddle1
								{
									OFFSET 11.335861 0.000000 0.000000
									CHANNELS 3 Xrotation Yrotation Zrotation
									JOINT LeftHandMiddle2
									{
										OFFSET 3.410492 0.000000 0.000000
										CHANNELS 3 Xrotation Yrotation Zrotation
										JOINT LeftHandMiddle3
										{
											OFFSET 3.312172 0.000000 0.000000
											CHANNELS 3 Xrotation Yrotation Zrotation
											End Site
											{
												OFFSET -1.150200 3.080154 0.400270
											}
										}
									}
								}
								JOINT LeftHandRing1
								{
									OFFSET 11.514786 -0.013176 -3.003090
									CHANNELS 3 Xrotation Yrotation Zrotation
									JOINT LeftHandRing2
									{
										OFFSET 3.053307 0.000000 0.000000
										CHANNELS 3 Xrotation Yrotation Zrotation
										JOINT LeftHandRing3
										{
											OFFSET 3.295807 0.000000 0.000000
											CHANNELS 3 Xrotation Yrotation Zrotation
											End Site
											{
												OFFSET -1.281006 3.013344 0.375733
											}
										}
									}
								}
								JOINT LeftHandPinky1
								{
									OFFSET 10.518692 -0.960396 -5.730441
									CHANNELS 3 Xrotation Yrotation Zrotation
									JOINT LeftHandPinky2
									{
										OFFSET 2.861649 0.000000 0.000000
										CHANNELS 3 Xrotation Yrotation Zrotation
										JOINT LeftHandPinky3
										{
											OFFSET 2.863380 0.000000 0.000000
											CHANNELS 3 Xrotation Yrotation Zrotation
											End Site
											{
												OFFSET -0.843597 2.711159 0.369971
											}
										}
									}
								}
							}
							JOINT LSleeve
							{
								OFFSET 6.676277 -0.344902 -1.011730
								CHANNELS 3 Xrotation Yrotation Zrotation
								End Site
								{
									OFFSET 0.000000 14.885353 0.000000
								}
							}
						}
					}
				}
				JOINT RightShoulder
				{
					OFFSET -6.197800 13.665199 -4.064700
					CHANNELS 3 Xrotation Yrotation Zrotation
					JOINT RightArm
					{
						OFFSET -7.778100 -0.187103 -1.709300
						CHANNELS 3 Xrotation Yrotation Zrotation
						JOINT RightForeArm
						{
							OFFSET -22.049376 0.000000 0.000000
							CHANNELS 3 Xrotation Yrotation Zrotation
							JOINT RightHand
							{
								OFFSET -23.009392 0.000000 0.000000
								CHANNELS 3 Xrotation Yrotation Zrotation
								JOINT RightHandThumb1
								{
									OFFSET -3.507191 -2.063065 3.133727
									CHANNELS 3 Xrotation Yrotation Zrotation
									JOINT RightHandThumb2
									{
										OFFSET -3.101337 -1.790558 1.790558
										CHANNELS 3 Xrotation Yrotation Zrotation
										JOINT RightHandThumb3
										{
											OFFSET -3.058640 -1.765907 1.765906
											CHANNELS 3 Xrotation Yrotation Zrotation
											End Site
											{
												OFFSET 0.415260 3.926476 -0.049563
											}
										}
									}
								}
								JOINT RightHandIndex1
								{
									OFFSET -11.334419 -0.901459 3.706815
									CHANNELS 3 Xrotation Yrotation Zrotation
									JOINT RightHandIndex2
									{
										OFFSET -3.283112 0.000000 0.000000
										CHANNELS 3 Xrotation Yrotation Zrotation
										JOINT RightHandIndex3
										{
											OFFSET -3.323853 0.000000 0.000000
											CHANNELS 3 Xrotation Yrotation Zrotation
											End Site
											{
												OFFSET 1.135597 3.097809 0.402452
											}
										}
									}
								}
								JOINT RightHandMiddle1
								{
									OFFSET -11.335861 0.000000 0.000000
									CHANNELS 3 Xrotation Yrotation Zrotation
									JOINT RightHandMiddle2
									{
										OFFSET -3.410492 0.000000 0.000000
										CHANNELS 3 Xrotation Yrotation Zrotation
										JOINT RightHandMiddle3
										{
											OFFSET -3.312172 0.000000 0.000000
											CHANNELS 3 Xrotation Yrotation Zrotation
											End Site
											{
												OFFSET 1.150200 3.080154 0.400270
											}
										}
									}
								}
								JOINT RightHandRing1
								{
									OFFSET -11.514786 -0.013176 -3.003090
									CHANNELS 3 Xrotation Yrotation Zrotation
									JOINT RightHandRing2
									{
										OFFSET -3.053307 0.000000 0.000000
										CHANNELS 3 Xrotation Yrotation Zrotation
										JOINT RightHandRing3
										{
											OFFSET -3.295807 0.000000 0.000000
											CHANNELS 3 Xrotation Yrotation Zrotation
											End Site
											{
												OFFSET 1.281006 3.013344 0.375733
											}
										}
									}
								}
								JOINT RightHandPinky1
								{
									OFFSET -10.518692 -0.960396 -5.730441
									CHANNELS 3 Xrotation Yrotation Zrotation
									JOINT RightHandPinky2
									{
										OFFSET -2.861649 0.000000 0.000000
										CHANNELS 3 Xrotation Yrotation Zrotation
										JOINT RightHandPinky3
										{
											OFFSET -2.863380 0.000000 0.000000
											CHANNELS 3 Xrotation Yrotation Zrotation
											End Site
											{
												OFFSET 0.843597 2.711159 0.369971
											}
										}
									}
								}
							}
							JOINT RSleeve
							{
								OFFSET -6.676277 -0.344902 -1.011730
								CHANNELS 3 Xrotation Yrotation Zrotation
								End Site
								{
									OFFSET 0.000000 14.885353 0.000000
								}
							}
						}
					}
				}
				JOINT Backpack
				{
					OFFSET 0.000000 -2.471497 36.677502
					CHANNELS 3 Xrotation Yrotation Zrotation
					End Site
					{
						OFFSET 0.000000 20.427315 0.000000
					}
				}
				JOINT Hood
				{
					OFFSET 0.000000 18.754097 -10.431000
					CHANNELS 3 Xrotation Yrotation Zrotation
					JOINT Hood1
					{
						OFFSET 0.000000 -5.011002 -7.685901
						CHANNELS 3 Xrotation Yrotation Zrotation
						End Site
						{
							OFFSET 0.000000 9.175140 0.000000
						}
					}
				}
				JOINT LHoodieString
				{
					OFFSET 5.250500 16.397697 3.089900
					CHANNELS 3 Xrotation Yrotation Zrotation
					JOINT LHoodieString1
					{
						OFFSET 0.257700 -6.364304 3.694600
						CHANNELS 3 Xrotation Yrotation Zrotation
						JOINT LHoodieString2
						{
							OFFSET 0.000000 -9.643799 2.679100
							CHANNELS 3 Xrotation Yrotation Zrotation
							End Site
							{
								OFFSET 0.000000 10.009018 0.000000
							}
						}
					}
				}
				JOINT RHoodieString
				{
					OFFSET -5.250500 16.397697 3.089900
					CHANNELS 3 Xrotation Yrotation Zrotation
					JOINT RHoodieString1
					{
						OFFSET -0.257700 -6.364304 3.694600
						CHANNELS 3 Xrotation Yrotation Zrotation
						JOINT RHoodieString2
						{
							OFFSET 0.000000 -9.643799 2.679100
							CHANNELS 3 Xrotation Yrotation Zrotation
							End Site
							{
								OFFSET 0.000000 10.009018 0.000000
							}
						}
					}
				}
			}
			JOINT LBackpack_Strap
			{
				OFFSET 15.223200 -7.719803 -6.610900
				CHANNELS 3 Xrotation Yrotation Zrotation
				End Site
				{
					OFFSET 0.000000 16.040596 0.000000
				}
			}
			JOINT RBackpack_Strap
			{
				OFFSET -15.223000 -7.719803 -6.610900
				CHANNELS 3 Xrotation Yrotation Zrotation
				End Site
				{
					OFFSET 0.000000 16.040596 0.000000
				}
			}
		}
	}
	JOINT BoyFacialAnim_Joint
	{
		OFFSET 1.000000 -82.208099 -1.550900
		CHANNELS 3 Xrotation Yrotation Zrotation
		End Site
		{
			OFFSET 0.000000 30.012791 0.000000
		}
	}
}
MOTION
Frames: 4
Frame Time: 0.033333
-0.578158 80.248993 0.258265 11.588078 -65.809877 10.018531 0.000000 -0.000001 0.000000 -37.377749 -1.369941 3.277413 55.348571 -3.363099 0.041906 0.687006 0.065221 -4.656098 0.000000 0.000002 -0.000001 0.000000 0.000002 -0.000000 -0.000000 0.000001 0.000000 -16.834808 -7.723341 3.509863 27.086292 2.213618 0.319895 -14.735004 0.671818 -5.356927 0.000000 -0.000000 0.000000 0.000000 -0.000000 0.000000 -0.000001 0.000002 -0.000001 5.891830 7.402942 -0.302256 4.207036 4.750639 -0.407735 4.180450 4.776995 -0.387804 4.751510 5.600981 1.899801 -4.997787 35.156114 -7.368571 0.000001 -0.000000 -0.000001 0.000001 -0.000000 -0.000001 0.000001 -0.000000 -0.000001 1.287952 2.046093 -7.556868 -1.901030 -19.818062 -67.839624 -0.000005 -29.221434 0.000006 5.898293 -13.966475 6.155479 34.633027 -11.155040 20.382277 10.317270 22.375517 -4.922726 0.000001 0.000001 -0.000001 -2.909554 -5.343415 -19.893643 0.730511 2.834806 -28.894712 -0.000001 0.000002 -0.000003 -0.724627 3.070644 -34.949873 0.579120 2.541608 -25.668163 -0.000001 0.000001 -0.000005 0.244412 4.333138 -32.106404 0.880826 3.091238 -31.802546 -0.000000 0.000002 -0.000004 0.557588 4.785878 -28.297493 0.460925 2.279624 -22.858492 0.000001 -0.000001 -0.000000 -0.000002 0.000000 -0.000000 -2.707383 6.648526 9.770597 0.059634 31.373128 55.948928 -0.000000 12.602163 0.000021 5.346747 -4.578920 -20.860127 -0.184848 0.811008 0.379099 14.555137 -10.338128 -17.751455 0.000000 -0.000001 -0.000002 -1.953982 1.211399 24.349889 0.102786 -0.974074 12.047019 -0.000001 -0.000000 0.000002 -0.068663 -3.360494 30.624540 0.243101 -1.486473 18.575080 0.000001 0.000001 -0.000002 2.118686 -6.841619 32.929199 0.379640 -1.843448 23.271897 -0.000001 0.000000 0.000000 0.991115 -5.107802 35.939892 0.407283 -1.906406 24.116693 0.000000 -0.000001 0.000002 0.000001 -0.000001 -0.000002 0.000001 -0.000004 0.000002 0.000001 -0.000004 0.000002 0.000001 -0.000004 0.000002 0.000001 -0.000004 0.000002 0.000001 -0.000004 0.000002 -0.000000 0.000001 -0.000001 0.000001 -0.000004 0.000002 0.000001 -0.000004 0.000002 -0.000000 0.000001 -0.000001 0.000000 0.000002 -0.000001 0.000000 0.000002 -0.000001 0.000000 -0.000001 0.000000 
-4.878095 80.470299 0.460926 13.752480 -67.618265 12.943394 0.000000 0.000001 -0.000000 -38.331766 0.811096 0.666710 42.943469 -1.324274 0.113263 -1.906591 0.256272 -5.786315 -0.000000 0.000002 -0.000001 -0.000000 0.000002 -0.000000 0.000001 0.000003 -0.000001 -11.836423 -7.434882 4.070213 23.283300 3.621943 0.429889 -16.203381 1.436099 -6.603354 0.000000 0.000002 0.000000 0.000000 0.000002 0.000000 0.000003 -0.000003 0.000000 5.816069 8.771062 -1.397278 4.080690 5.109800 -0.890842 4.040426 5.146019 -0.876887 4.789012 5.597037 1.830992 -5.011821 35.048156 -7.028481 0.000000 0.000000 -0.000000 0.000000 0.000000 -0.000000 0.000000 0.000000 -0.000000 1.631118 3.428013 -7.487775 0.606338 -18.993597 -66.557899 0.000009 -26.115705 0.000018 5.148601 -9.935141 4.984607 34.633027 -11.155039 20.382278 11.098721 22.482205 -5.387503 -0.000003 -0.000001 -0.000002 -3.002370 -5.154625 -20.773011 0.730417 2.834673 -28.893360 -0.000001 0.000001 -0.000002 -0.708854 3.123020 -35.254076 0.582462 2.548518 -25.743068 -0.000001 -0.000003 -0.000000 0.192830 4.269388 -32.495540 0.879620 3.089266 -31.780088 -0.000000 0.000001 -0.000000 0.434951 4.560025 -28.356919 0.461166 2.280207 -22.864588 -0.000000 0.000001 0.000005 0.000001 0.000001 0.000001 -3.388748 7.077435 9.605672 -1.064181 32.099744 54.957888 -0.000002 15.143385 -0.000005 3.639188 -3.296430 -21.827155 -0.184848 0.811008 0.379099 13.116578 -10.255188 -18.306918 0.000000 -0.000001 -0.000003 -2.065978 1.740149 23.278724 0.102378 -0.972153 12.022893 -0.000001 -0.000000 0.000003 -0.256944 -2.998193 29.950216 0.242049 -1.483337 18.534461 0.000001 0.000000 -0.000000 2.017959 -6.743505 32.167438 0.381132 -1.846915 23.318240 -0.000001 0.000001 -0.000001 0.805585 -4.834001 35.515522 0.409056 -1.910357 24.169879 -0.000001 -0.000001 -0.000000 -0.000001 -0.000001 -0.000001 0.000001 0.000004 -0.000001 0.000001 0.000004 -0.000001 0.000001 0.000004 -0.000001 0.000001 0.000004 -0.000001 0.000001 0.000004 -0.000001 0.000001 0.000000 0.000000 0.000001 0.000004 -0.000001 0.000001 0.000004 -0.000001 0.000001 0.000000 0.000000 0.000001 -0.000002 -0.000000 0.000001 -0.000002 -0.000000 0.000000 0.000001 -0.000000 
-9.207793 80.096512 0.707361 16.871385 -69.779275 15.990125 0.000000 -0.000002 0.000000 -37.810486 1.481026 -0.705094 27.484191 -0.289451 0.155736 -2.944064 0.421228 -7.443834 -0.000000 -0.000001 0.000000 -0.000000 -0.000001 0.000000 0.000000 0.000001 -0.000000 -7.368349 -7.831608 5.113988 20.899879 6.206897 0.485309 -18.316160 2.529430 -8.493165 -0.000000 0.000000 0.000000 -0.000000 0.000000 0.000000 0.000003 0.000001 -0.000001 5.496346 10.676038 -1.596609 3.805015 5.580054 -1.057461 3.743347 5.625121 -1.059234 4.761707 5.606256 1.538776 -4.959038 35.055270 -7.341946 -0.000000 0.000000 -0.000001 -0.000000 0.000000 -0.000001 -0.000000 0.000000 -0.000001 1.925923 4.745620 -7.513766 3.744390 -17.539431 -65.478544 -0.000003 -24.211433 -0.000004 5.665823 -5.734900 3.879669 34.633027 -11.155038 20.382273 12.214420 22.441942 -6.130800 -0.000001 0.000001 0.000002 -3.245619 -4.957333 -22.412077 0.728473 2.831135 -28.853697 -0.000001 -0.000000 -0.000004 -0.696286 3.210126 -35.975849 0.586567 2.557046 -25.835612 0.000001 -0.000002 -0.000002 0.094748 4.148692 -33.118723 0.877828 3.086392 -31.746835 -0.000000 -0.000001 -0.000000 0.199079 4.140468 -28.759628 0.461849 2.281829 -22.881945 0.000001 0.000000 0.000001 0.000001 -0.000000 0.000001 -3.944690 7.649491 9.472170 -0.677050 33.368906 52.964699 -0.000000 17.829688 -0.000010 1.558404 -2.446581 -22.857570 -0.184848 0.811007 0.379102 11.495681 -9.752480 -18.603501 0.000000 -0.000000 -0.000002 -2.106515 1.895265 23.080847 0.102186 -0.971246 12.011480 -0.000000 0.000001 -0.000001 -0.355409 -2.809394 29.709451 0.241441 -1.481521 18.510912 -0.000000 0.000000 0.000002 1.942243 -6.651461 31.792348 0.381392 -1.847518 23.326296 -0.000000 -0.000000 0.000000 0.544511 -4.465120 35.300258 0.407952 -1.907904 24.136847 0.000000 -0.000000 0.000000 0.000001 -0.000001 0.000001 0.000001 -0.000000 0.000001 0.000001 -0.000000 0.000001 0.000001 -0.000000 0.000001 0.000001 -0.000000 0.000001 0.000001 -0.000000 0.000000 -0.000000 0.000001 -0.000001 0.000001 -0.000000 0.000001 0.000001 -0.000000 0.000000 -0.000000 0.000001 -0.000001 -0.000000 0.000000 0.000001 -0.000000 0.000000 0.000001 0.000000 -0.000002 0.000000 
-13.674528 79.146950 0.897023 21.328673 -73.423885 19.886584 -0.000000 -0.000001 0.000000 -39.217693 1.494058 -0.900831 16.966291 0.610023 0.179467 -6.046924 0.028546 -4.104569 -0.000001 0.000000 -0.000001 -0.000001 0.000000 -0.000000 0.000001 -0.000000 0.000000 -3.033326 -8.535198 6.015211 20.183593 8.367873 0.598025 -21.159243 6.329900 -10.003277 -0.000000 -0.000001 0.000000 -0.000000 -0.000001 0.000000 0.000002 -0.000000 -0.000001 5.302321 13.883467 -1.632072 3.532188 6.116726 -0.918217 3.457978 6.161836 -0.943275 4.556231 5.646187 1.307430 -4.711030 35.374082 -8.177981 0.000000 0.000001 0.000000 0.000000 0.000001 0.000000 0.000000 0.000001 0.000000 2.152252 5.928719 -7.612006 7.041642 -15.261600 -65.067558 -0.000000 -23.474243 -0.000001 6.371839 -1.414993 2.795586 34.633027 -11.155040 20.382280 13.088063 21.783712 -6.675427 -0.000001 -0.000001 0.000002 -3.485700 -4.851753 -23.795175 0.726318 2.827227 -28.809967 -0.000002 -0.000000 -0.000004 -0.672885 3.294138 -36.526264 0.587394 2.558754 -25.854016 0.000002 -0.000001 0.000002 0.025842 4.062563 -33.459324 0.873054 3.078697 -31.658149 0.000001 0.000001 -0.000002 -0.044955 3.725289 -29.251026 0.462896 2.284287 -22.908022 -0.000001 0.000000 0.000002 0.000001 0.000000 -0.000001 -4.328726 8.434682 9.469622 0.835909 35.642792 50.034523 -0.000001 20.280807 0.000009 0.140081 -2.020778 -23.950262 -0.184848 0.811009 0.379097 9.556172 -8.775279 -18.881247 0.000000 0.000000 0.000000 -2.135676 2.135509 22.525583 0.102043 -0.970580 12.003165 0.000000 0.000002 0.000002 -0.459582 -2.575595 29.081989 0.241133 -1.480607 18.499070 0.000001 0.000001 -0.000002 1.820225 -6.508840 31.030512 0.380652 -1.845797 23.303272 0.000000 0.000000 0.000000 0.223369 -4.001724 35.004515 0.404793 -1.900831 24.041653 0.000000 0.000001 -0.000001 -0.000000 0.000001 -0.000000 -0.000001 0.000003 -0.000000 -0.000001 0.000003 -0.000000 -0.000001 0.000003 -0.000000 -0.000001 0.000003 -0.000000 -0.000001 0.000003 -0.000001 -0.000001 0.000001 -0.000000 -0.000001 0.000003 -0.000000 -0.000001 0.000003 -0.000001 -0.000001 0.000001 -0.000000 0.000001 0.000001 -0.000000 0.000001 0.000001 -0.000000 -0.000000 -0.000001 0.000000 
